<svg xmlns="http://www.w3.org/2000/svg" viewBox="0 0 1440 320"><path fill="#fbbf24" fill-opacity="1" d="M0,160L10,149.3C20,139,40,117,60,138.7C80,160,100,224,120,240C140,256,160,224,180,192C200,160,220,128,240,128C260,128,280,160,300,186.7C320,213,340,235,360,245.3C380,256,400,256,420,213.3C440,171,460,85,480,64C500,43,520,85,540,106.7C560,128,580,128,600,122.7C620,117,640,107,660,90.7C680,75,700,53,720,69.3C740,85,760,139,780,170.7C800,203,820,213,840,229.3C860,245,880,267,900,261.3C920,256,940,224,960,181.3C980,139,1000,85,1020,85.3C1040,85,1060,139,1080,144C1100,149,1120,107,1140,85.3C1160,64,1180,64,1200,80C1220,96,1240,128,1260,170.7C1280,213,1300,267,1320,256C1340,245,1360,171,1380,122.7C1400,75,1420,53,1430,42.7L1440,32L1440,0L1430,0C1420,0,1400,0,1380,0C1360,0,1340,0,1320,0C1300,0,1280,0,1260,0C1240,0,1220,0,1200,0C1180,0,1160,0,1140,0C1120,0,1100,0,1080,0C1060,0,1040,0,1020,0C1000,0,980,0,960,0C940,0,920,0,900,0C880,0,860,0,840,0C820,0,800,0,780,0C760,0,740,0,720,0C700,0,680,0,660,0C640,0,620,0,600,0C580,0,560,0,540,0C520,0,500,0,480,0C460,0,440,0,420,0C400,0,380,0,360,0C340,0,320,0,300,0C280,0,260,0,240,0C220,0,200,0,180,0C160,0,140,0,120,0C100,0,80,0,60,0C40,0,20,0,10,0L0,0Z"></path></svg>